<?xml version="1.0" encoding="UTF-8" standalone="no"?>
<!DOCTYPE svg PUBLIC "-//W3C//DTD SVG 20010904//EN"
"http://www.w3.org/TR/2001/REC-SVG-20010904/DTD/svg10.dtd">
<!-- Created with Inkscape ("http://www.inkscape.org/") -->
<svg
   i:viewOrigin="243.4165 458.3335"
   i:rulerOrigin="-242 -332"
   i:pageBounds="242 460 370 332"
   width="48pt"
   height="48pt"
   viewBox="0 0 119.845 120.333"
   overflow="visible"
   enable-background="new 0 0 119.845 120.333"
   xml:space="preserve"
   id="svg153"
   sodipodi:version="0.32"
   sodipodi:docname="/home/ed/Projects/monitor.svg"
   sodipodi:docbase="/home/ed/Projects"
   xmlns="http://www.w3.org/2000/svg"
   xmlns:sodipodi="http://sodipodi.sourceforge.net/DTD/sodipodi-0.dtd"
   xmlns:ns="http://ns.adobe.com/Variables/1.0/"
   xmlns:i="http://ns.adobe.com/AdobeIllustrator/10.0/"
   xmlns:xml="http://www.w3.org/XML/1998/namespace"
   xmlns:a="http://ns.adobe.com/AdobeSVGViewerExtensions/3.0/"
   xmlns:inkscape="http://www.inkscape.org/namespaces/inkscape"
   xmlns:xlink="http://www.w3.org/1999/xlink"
   inkscape:version="0.36"><defs
   id="defs213" />
<sodipodi:namedview
   id="base" />
<metadata
   id="metadata154"><sfw><slices />
<sliceSourceBounds
   x="240"
   y="338"
   width="133"
   height="124"
   bottomLeftOrigin="true" />
</sfw>
<ns:variableSets><ns:variableSet
   varSetName="binding1"
   locked="none"><ns:variables />
<ns:sampleDataSets />
</ns:variableSet>
</ns:variableSets>
</metadata>
<g
   id="g159"
   style="font-size:12;stroke:#000000;"><linearGradient
   id="XMLID_1_"
   gradientUnits="userSpaceOnUse"
   x1="22.0181"
   y1="103.2437"
   x2="92.1284"
   y2="103.2437"><stop
   offset="0"
   style="stop-color:#9E9E9E"
   id="stop161" />
<stop
   offset="1"
   style="stop-color:#616161"
   id="stop162" />
<a:midPointStop
   offset="0"
   style="stop-color:#9E9E9E"
   id="midPointStop163" />
<a:midPointStop
   offset="0.5"
   style="stop-color:#9E9E9E"
   id="midPointStop164" />
<a:midPointStop
   offset="1"
   style="stop-color:#616161"
   id="midPointStop165" />
</linearGradient>
<path
   i:knockout="Off"
   fill="url(#XMLID_1_)"
   stroke="none"
   d="M92.128,103.244c0-3.777-15.694-6.84-35.055-6.84       c-19.36,0-35.055,3.063-35.055,6.84s15.695,6.84,35.055,6.84C76.434,110.083,92.128,107.021,92.128,103.244z"
   id="path166" />
<path
   i:knockout="Off"
   fill="none"
   d="M92.128,103.244c0-3.777-15.694-6.84-35.055-6.84c-19.36,0-35.055,3.063-35.055,6.84       s15.695,6.84,35.055,6.84C76.434,110.083,92.128,107.021,92.128,103.244z"
   id="path167" />
</g>
<g
   id="g170"
   style="font-size:12;stroke:#000000;"><linearGradient
   id="XMLID_2_"
   gradientUnits="userSpaceOnUse"
   x1="50.271"
   y1="99.6753"
   x2="64.3032"
   y2="99.6753"><stop
   offset="0"
   style="stop-color:#9E9E9E"
   id="stop172" />
<stop
   offset="1"
   style="stop-color:#616161"
   id="stop173" />
<a:midPointStop
   offset="0"
   style="stop-color:#9E9E9E"
   id="midPointStop174" />
<a:midPointStop
   offset="0.5"
   style="stop-color:#9E9E9E"
   id="midPointStop175" />
<a:midPointStop
   offset="1"
   style="stop-color:#616161"
   id="midPointStop176" />
</linearGradient>
<path
   i:knockout="Off"
   fill="url(#XMLID_2_)"
   stroke="none"
   d="M64.303,94.398c-4.649-0.736-9.384-0.736-14.032,0       c0.557,3.519,1.115,7.037,1.672,10.556c3.541-0.561,7.147-0.561,10.688,0C63.188,101.435,63.746,97.917,64.303,94.398z"
   id="path177" />
<path
   i:knockout="Off"
   fill="none"
   d="M64.303,94.398c-4.649-0.736-9.384-0.736-14.032,0c0.557,3.519,1.115,7.037,1.672,10.556       c3.541-0.561,7.147-0.561,10.688,0C63.188,101.435,63.746,97.917,64.303,94.398z"
   id="path178" />
</g>
<g
   id="g181"
   style="font-size:12;stroke:#000000;"><linearGradient
   id="XMLID_3_"
   gradientUnits="userSpaceOnUse"
   x1="6.1294"
   y1="84.8608"
   x2="111.9351"
   y2="84.8608"><stop
   offset="0"
   style="stop-color:#9E9E9E"
   id="stop183" />
<stop
   offset="1"
   style="stop-color:#616161"
   id="stop184" />
<a:midPointStop
   offset="0"
   style="stop-color:#9E9E9E"
   id="midPointStop185" />
<a:midPointStop
   offset="0.5"
   style="stop-color:#9E9E9E"
   id="midPointStop186" />
<a:midPointStop
   offset="1"
   style="stop-color:#616161"
   id="midPointStop187" />
</linearGradient>
<path
   i:knockout="Off"
   fill="url(#XMLID_3_)"
   stroke="none"
   d="M6.129,80.373h105.806c0,0-12.823,19.237-55.574,19.237       C13.611,99.61,6.129,80.373,6.129,80.373z M6.129,70.112c0,0,7.481,19.238,50.231,19.238c42.751,0,55.574-19.238,55.574-19.238       "
   id="path188" />
<path
   i:knockout="Off"
   fill="none"
   d="M6.129,80.373h105.806c0,0-12.823,19.237-55.574,19.237       C13.611,99.61,6.129,80.373,6.129,80.373z M6.129,70.112c0,0,7.481,19.238,50.231,19.238c42.751,0,55.574-19.238,55.574-19.238       "
   id="path189" />
</g>
<g
   id="g192"
   style="font-size:12;stroke:#000000;"><linearGradient
   id="XMLID_4_"
   gradientUnits="userSpaceOnUse"
   x1="9.2373"
   y1="-5.2979"
   x2="110.6091"
   y2="96.0739"><stop
   offset="0"
   style="stop-color:#636363"
   id="stop194" />
<stop
   offset="1"
   style="stop-color:#000000"
   id="stop195" />
<a:midPointStop
   offset="0"
   style="stop-color:#636363"
   id="midPointStop196" />
<a:midPointStop
   offset="0.5"
   style="stop-color:#636363"
   id="midPointStop197" />
<a:midPointStop
   offset="1"
   style="stop-color:#000000"
   id="midPointStop198" />
</linearGradient>
<path
   i:knockout="Off"
   fill="url(#XMLID_4_)"
   stroke="none"
   d="M119.345,85.275c0,2.75-2.25,5-5,5H5.5c-2.75,0-5-2.25-5-5V5.5       c0-2.75,2.25-5,5-5h108.845c2.75,0,5,2.25,5,5V85.275z M109.726,12.768c0-2.75-2.25-5-5-5H15.121c-2.75,0-5,2.25-5,5v65.24       c0,2.75,2.25,5,5,5h89.605c2.75,0,5-2.25,5-5V12.768z"
   id="path199" />
<path
   i:knockout="Off"
   fill="none"
   d="M119.345,85.275c0,2.75-2.25,5-5,5H5.5c-2.75,0-5-2.25-5-5V5.5c0-2.75,2.25-5,5-5       h108.845c2.75,0,5,2.25,5,5V85.275z M109.726,12.768c0-2.75-2.25-5-5-5H15.121c-2.75,0-5,2.25-5,5v65.24c0,2.75,2.25,5,5,5       h89.605c2.75,0,5-2.25,5-5V12.768z"
   id="path200" />
</g>
<g
   i:knockout="Off"
   id="g201"
   style="font-size:12;stroke:#000000;"><linearGradient
   id="XMLID_5_"
   gradientUnits="userSpaceOnUse"
   x1="102.1665"
   y1="87.6304"
   x2="17.6811"
   y2="3.1449"><stop
   offset="0"
   style="stop-color:#FFFFFF"
   id="stop203" />
<stop
   offset="1"
   style="stop-color:#ADADAD"
   id="stop204" />
<a:midPointStop
   offset="0"
   style="stop-color:#FFFFFF"
   id="midPointStop205" />
<a:midPointStop
   offset="0.5"
   style="stop-color:#FFFFFF"
   id="midPointStop206" />
<a:midPointStop
   offset="1"
   style="stop-color:#ADADAD"
   id="midPointStop207" />
</linearGradient>
<path
   i:knockout="Off"
   fill="url(#XMLID_5_)"
   stroke="none"
   d="M109.726,78.007c0,2.75-2.25,5-5,5H15.121c-2.75,0-5-2.25-5-5      v-65.24c0-2.75,2.25-5,5-5h89.605c2.75,0,5,2.25,5,5V78.007z"
   id="path208" />
<path
   i:knockout="Off"
   fill="none"
   d="M109.726,78.007c0,2.75-2.25,5-5,5H15.121c-2.75,0-5-2.25-5-5v-65.24c0-2.75,2.25-5,5-5      h89.605c2.75,0,5,2.25,5,5V78.007z"
   id="path209" />
</g>
<g
   i:knockout="Off"
   id="g210"
   style="font-size:12;stroke:#000000;"><path
   i:knockout="Off"
   opacity="0.3"
   fill="#FFFFFF"
   stroke="none"
   d="M119.345,10.533c0,2.75-0.861,7.079-1.914,9.619      c0,0-10.483,25.308-57.508,25.308c-47.025,0-57.822,31.957-57.822,31.957C1.22,80.022,0.5,79.904,0.5,77.154V5.5      c0-2.75,2.25-5,5-5h108.845c2.75,0,5,2.25,5,5V10.533z"
   id="path211" />
</g>
<path
   style="fill:#ff0000;fill-rule:evenodd;stroke:none;stroke-opacity:1;stroke-width:0.250185;stroke-linejoin:miter;stroke-linecap:butt;fill-opacity:0.620438;stroke-dasharray:none;"
   d="M 10.6113 20.3688 C 18.6868 20.2905 23.1341 16.8043 23.0952 8.22589 C 21.4762 8.18672 15.2293 7.91252 13.3324 8.55638 C 12.6073 8.81305 12.1718 9.19535 11.7231 9.69478 C 11.2745 10.1942 10.9577 10.6915 10.7576 11.3913 C 10.4115 12.4074 10.5138 19.037 10.6113 20.3688 z "
   id="path675"
   sodipodi:nodetypes="ccsssc" />
<path
   style="fill:#ff0000;fill-rule:evenodd;stroke:none;stroke-opacity:1;stroke-width:0.250185;stroke-linejoin:miter;stroke-linecap:butt;fill-opacity:0.620438;stroke-dasharray:none;"
   d="M 97.1469 8.2662 C 97.2249 16.3746 100.697 20.84 109.241 20.8009 C 109.28 19.1753 109.553 12.903 108.911 10.9984 C 108.656 10.2703 108.275 9.83305 107.778 9.38252 C 107.28 8.9321 106.785 8.61401 106.088 8.41309 C 105.076 8.06558 98.4733 8.1683 97.1469 8.2662 z "
   id="path676"
   sodipodi:nodetypes="ccsssc" />
<path
   style="fill:#ff0000;fill-rule:evenodd;stroke:none;stroke-opacity:1;stroke-width:0.250185;stroke-linejoin:miter;stroke-linecap:butt;fill-opacity:0.620438;stroke-dasharray:none;"
   d="M 109.248 70.4021 C 101.172 70.4804 96.7252 73.9666 96.7641 82.5454 C 98.3831 82.5846 104.63 82.8587 106.527 82.2141 C 107.252 81.9581 107.688 81.5755 108.136 81.0765 C 108.585 80.5765 108.902 80.0794 109.102 79.3796 C 109.448 78.3635 109.346 71.7339 109.248 70.4021 z "
   id="path677"
   sodipodi:nodetypes="ccsssc" />
<path
   style="fill:#ff0000;fill-rule:evenodd;stroke:none;stroke-opacity:1;stroke-width:0.250185;stroke-linejoin:miter;stroke-linecap:butt;fill-opacity:0.620438;stroke-dasharray:none;"
   d="M 22.6347 82.5525 C 22.5567 74.4436 19.0846 69.9787 10.5406 70.0177 C 10.5016 71.6433 10.2286 77.9157 10.8706 79.8204 C 11.1255 80.5483 11.5066 80.9861 12.0036 81.4359 C 12.5015 81.8868 12.9966 82.2051 13.6936 82.4059 C 14.7056 82.7533 21.3083 82.6509 22.6347 82.5525 z "
   id="path678"
   sodipodi:nodetypes="ccsssc" />
<path
   style="font-size:12;fill:#0000ff;fill-opacity:0.75;fill-rule:evenodd;stroke-width:3pt;"
   d="M 10.6065 20.2961 L 10.5219 70.0686 L 13.4335 70.2251 L 13.518 20.1396 L 10.6065 20.2961 z "
   id="path681"
   sodipodi:nodetypes="ccccc" />
<path
   style="font-size:12;fill:#0000ff;fill-opacity:0.75;fill-rule:evenodd;stroke-width:3pt;"
   d="M 109.247 70.4605 L 109.332 20.7658 L 106.421 20.6096 L 106.336 70.6167 L 109.247 70.4605 z "
   id="path682"
   sodipodi:nodetypes="ccccc" />
<path
   style="font-size:12;fill:#0000ff;fill-opacity:0.75;fill-rule:evenodd;stroke-width:3pt;"
   d="M 97.1967 8.27438 L 23.0468 8.18938 L 22.8138 11.1129 L 97.4298 11.1977 L 97.1967 8.27438 z "
   id="path683"
   sodipodi:nodetypes="ccccc" />
<path
   style="font-size:12;fill:#0000ff;fill-opacity:0.75;fill-rule:evenodd;stroke-width:3pt;"
   d="M 22.5787 82.4821 L 96.729 82.5671 L 96.962 79.6435 L 22.3456 79.5587 L 22.5787 82.4821 z "
   id="path684"
   sodipodi:nodetypes="ccccc" />
</svg>
